<?xml version="1.0" encoding="UTF-8" standalone="no"?>
<!-- Generator: Adobe Illustrator 18.1.1, SVG Export Plug-In . SVG Version: 6.00 Build 0)  -->

<svg
   version="1.1"
   id="Layer_1"
   x="0px"
   y="0px"
   viewBox="0 0 103.19999 103.2"
   enable-background="new 0 0 960 560"
   xml:space="preserve"
   inkscape:version="1.2.2 (b0a8486541, 2022-12-01)"
   sodipodi:docname="micro.svg"
   width="103.19999"
   height="103.2"
   inkscape:export-filename="../Downloads/micro.svg"
   inkscape:export-xdpi="96"
   inkscape:export-ydpi="96"
   xmlns:inkscape="http://www.inkscape.org/namespaces/inkscape"
   xmlns:sodipodi="http://sodipodi.sourceforge.net/DTD/sodipodi-0.dtd"
   xmlns="http://www.w3.org/2000/svg"
   xmlns:svg="http://www.w3.org/2000/svg"
   xmlns:rdf="http://www.w3.org/1999/02/22-rdf-syntax-ns#"
   xmlns:cc="http://creativecommons.org/ns#"
   xmlns:dc="http://purl.org/dc/elements/1.1/"><metadata
     id="metadata21"><rdf:RDF><cc:Work
         rdf:about=""><dc:format>image/svg+xml</dc:format><dc:type
           rdf:resource="http://purl.org/dc/dcmitype/StillImage" /></cc:Work></rdf:RDF></metadata><defs
     id="defs19" /><sodipodi:namedview
     pagecolor="#ffffff"
     bordercolor="#666666"
     borderopacity="1"
     objecttolerance="10"
     gridtolerance="10"
     guidetolerance="10"
     inkscape:pageopacity="0"
     inkscape:pageshadow="2"
     inkscape:window-width="1499"
     inkscape:window-height="749"
     id="namedview17"
     showgrid="false"
     fit-margin-top="0"
     fit-margin-left="0"
     fit-margin-right="0"
     fit-margin-bottom="0"
     inkscape:zoom="2.3342281"
     inkscape:cx="66.403108"
     inkscape:cy="63.832665"
     inkscape:window-x="50"
     inkscape:window-y="118"
     inkscape:window-maximized="0"
     inkscape:current-layer="Layer_1"
     inkscape:pagecheckerboard="0"
     inkscape:showpageshadow="2"
     inkscape:deskcolor="#d1d1d1" /><path
     d="M 51.599996,-4.2517618e-8 C 23.099996,-4.2517618e-8 -2.2099298e-6,23.1 -2.2099298e-6,51.6 -2.2099298e-6,80.1 23.099996,103.2 51.599996,103.2 80.099996,103.2 103.2,80.1 103.2,51.6 103.2,23.1 80.099996,-4.2517611e-8 51.599996,-4.2517618e-8 Z M 76.099996,58.6 c -0.5,2 -1.3,3.6 -2.4,4.9 -1,1.3 -2,2.1 -3.1,2.5 -1.1,0.4 -2.2,0.6 -3.4,0.6 -1.2,0 -2.2,-0.2 -3,-0.7 -0.8,-0.4 -1.4,-1.1 -1.9,-1.9 -0.5,-0.8 -0.8,-1.8 -1,-2.9 -0.2,-1.1 -0.3,-2.3 -0.3,-3.6 0,-0.5 0,-1 0.1,-1.7 0.1,-0.7 0.2,-1.6 0.3,-1.6 h -0.2 c -1.6,4 -3.8,6.9 -6.6,9.2 -2.8,2.3 -5.9,3.4 -9.3,3.4 -2.3,0 -4.2,-0.9 -5.5,-2.6 -1.4,-1.7 -2.1,-4.3 -2.1,-7.7 0,-0.5 0,-1 0.1,-1.6 0.1,-0.5 0.1,-0.7 0.2,-1.7 h -0.7 c -0.9,2 -1.7,4.8 -2.3,7.3 -0.6,2.5 -1.1,4.8 -1.4,6.9 -0.4,2.1 -0.6,4 -0.8,5.6 -0.2,1.6 -0.3,2.7 -0.4,3.3 0.1,0.5 0.2,1 0.3,1.6 0.2,0.6 0.3,1.2 0.5,1.7 0.2,0.5 0.3,1.1 0.4,1.6 0.1,0.5 0.2,0.9 0.2,1.2 0,1.4 -0.3,2.5 -0.9,3.2 -0.6,0.7 -1.3,1.1 -2,1.1 -0.9,0 -1.7,-0.3 -2.3,-0.8 -0.7,-0.6 -1,-1.5 -1,-2.7 0,-1.7 0.3,-3.9 0.9,-6.5 0.6,-2.6 1.5,-5.9 2.6,-9.8 0.6,-1.8 1.1,-3.6 1.7,-5.4 0.6,-1.8 1.1,-3.5 1.6,-5 0.5,-1.5 0.9,-2.9 1.3,-4.1 0.4,-1.2 0.6,-2.1 0.7,-2.8 0.1,-0.3 0.2,-1 0.3,-2 0.1,-1 0.2,-2.1 0.4,-3.4 0.2,-1.3 0.3,-2.7 0.5,-4.1 0.2,-1.5 0.4,-2.8 0.5,-4 0.2,-0.9 0.3,-1.9 0.5,-3 0.2,-1.1 0.5,-2.2 0.9,-3.1 0.4,-1 1,-1.8 1.7,-2.5 0.7,-0.7 1.6,-1 2.7,-1 1.2,0 2,0.4 2.4,1.1 0.4,0.7 0.6,1.6 0.5,2.6 -0.1,1 -0.2,2.1 -0.5,3.2 -0.3,1.1 -0.6,2.1 -0.9,2.9 -0.8,2.5 -1.6,4.8 -2.5,6.7 -0.9,1.9 -1.7,4 -2.4,6.2 -0.6,1.5 -0.8,2.9 -0.8,4.1 0,2.2 0.7,3.8 2,5 1.4,1.2 3,1.7 4.9,1.7 1.5,0 3,-0.5 4.4,-1.6 1.4,-1.1 2.7,-2.4 3.9,-3.9 1.2,-1.5 2.2,-3.1 3,-4.9 0.8,-1.7 1.4,-3.3 1.8,-4.6 0.1,-0.2 0.2,-0.6 0.3,-1.4 0.2,-0.8 0.3,-1.7 0.5,-2.7 0.2,-1 0.4,-2 0.6,-3.1 0.2,-1.1 0.4,-2 0.5,-2.7 0.2,-0.8 0.3,-1.6 0.5,-2.6 0.2,-1 0.5,-1.9 0.9,-2.8 0.4,-0.9 1,-1.6 1.6,-2.2 0.7,-0.6 1.5,-0.9 2.6,-0.9 1.3,0 2.1,0.4 2.6,1.1 0.4,0.7 0.6,1.6 0.6,2.6 -0.1,1 -0.2,2 -0.5,3 -0.3,1 -0.5,1.8 -0.7,2.4 -0.8,2.5 -1.6,4.7 -2.4,6.7 -0.8,2 -1.5,3.8 -2.2,5.2 -0.6,1.5 -1.1,2.6 -1.5,3.5 -0.4,0.9 -0.6,1.5 -0.6,1.8 0,2.6 0.6,4.5 1.7,5.6 1.1,1.1 2.3,1.7 3.6,1.7 2.2,0 3.9,-0.7 5.2,-2 1.3,-1.4 2.3,-3.9 2.9,-6.9 h 0.8 c 0.2,2.9 -0.1,5.3 -0.6,7.3 z"
     id="path15"
     inkscape:connector-curvature="0"
     style="fill:#2e3192" /><path
     style="fill:#ffffff;stroke-width:0.0757324"
     d="m 30.039156,86.530088 c -1.01731,-0.241662 -1.78787,-0.887419 -2.14362,-1.796406 -0.54565,-1.394246 -0.15893,-4.812615 1.12618,-9.954732 1.25593,-5.025324 2.45908,-9.096362 5.10974,-17.289458 0.34431,-1.064257 1.65413,-5.2136 1.88861,-5.982859 0.29659,-0.97307 0.59855,-2.708021 0.79743,-4.581811 0.10831,-1.020494 0.24643,-2.186451 0.30693,-2.591018 0.0605,-0.404565 0.17876,-1.341754 0.26279,-2.082641 0.22484,-1.982189 0.64929,-5.218012 0.91679,-6.98913 0.44454,-2.943359 0.75368,-4.198397 1.35476,-5.499991 0.68684,-1.487323 1.77106,-2.655188 2.80512,-3.021538 0.5424,-0.19216 1.38139,-0.270583 1.9826,-0.185316 1.25252,0.17764 1.8835,0.754167 2.21174,2.020866 0.31376,1.21084 -0.0556,3.930951 -0.87714,6.458782 -1.2907,3.971623 -2.0364,5.990995 -2.98692,8.088674 -1.18514,2.61545 -2.71221,6.873258 -2.93961,8.196258 -0.49042,2.853282 0.0497,5.146283 1.57823,6.6999 0.91391,0.928929 2.02394,1.521458 3.41344,1.82209 0.90375,0.195534 2.60848,0.179674 3.40796,-0.03171 1.38342,-0.365777 2.76388,-1.250325 4.3773,-2.804821 3.16312,-3.047616 5.11353,-6.222841 6.79743,-11.066108 0.35398,-1.018094 0.49336,-1.574562 0.74932,-2.991429 0.27101,-1.500218 1.04086,-5.574621 1.51657,-8.026458 0.0808,-0.416528 0.21825,-1.149239 0.30542,-1.628246 0.47208,-2.594388 1.14851,-4.178722 2.33029,-5.458032 0.76384,-0.826879 1.67449,-1.206419 2.89463,-1.206419 1.24359,0 2.13899,0.401576 2.57427,1.154526 0.9743,1.685378 0.68395,4.053139 -1.16363,9.489195 -0.95443,2.808181 -2.57271,6.998752 -3.49359,9.046702 -0.97174,2.161077 -2.20191,5.041664 -2.44181,5.717796 l -0.2687,0.757324 0.0902,1.120423 c 0.21242,2.638199 0.88931,4.086035 2.46914,5.281365 0.93296,0.705895 1.78646,0.982601 3.02628,0.981126 2.42654,-0.0029 4.48073,-1.028876 5.68566,-2.839769 0.81178,-1.220036 1.58443,-3.158397 2.04488,-5.130071 l 0.20782,-0.889855 h 0.35637 0.35637 l 0.048,0.892492 c 0.0554,1.030319 -0.0488,3.015268 -0.21924,4.175846 -0.34582,2.354993 -1.04086,4.427262 -1.98316,5.91286 -0.70157,1.106055 -1.95821,2.491062 -2.71741,2.994989 -1.55581,1.032691 -4.18785,1.499135 -6.16183,1.091984 -0.60372,-0.124523 -1.72865,-0.689523 -2.17895,-1.094387 -1.47799,-1.328835 -2.18714,-3.341642 -2.36036,-6.699454 -0.082,-1.588814 0.0522,-3.504923 0.29856,-4.263967 0.0568,-0.175039 0.0459,-0.208265 -0.0686,-0.208265 -0.0967,0 -0.19767,0.148268 -0.34823,0.511194 -0.71177,1.715746 -1.96526,3.867832 -3.1429,5.395934 -0.68078,0.883388 -2.61284,2.822501 -3.48368,3.496397 -2.51707,1.947843 -5.07316,2.951502 -8.06052,3.164993 -1.59238,0.1138 -2.86837,-0.07567 -4.01697,-0.596469 -1.69649,-0.769225 -3.10945,-2.469115 -3.81902,-4.594555 -0.61403,-1.839276 -0.86338,-4.754214 -0.58068,-6.788275 0.0595,-0.428202 0.12607,-0.957467 0.1479,-1.176145 l 0.0397,-0.397595 h -0.39676 -0.39676 l -0.29203,0.738391 c -0.70533,1.783387 -1.45863,4.293583 -2.08521,6.948448 -1.02717,4.352223 -1.56307,7.486558 -2.19742,12.852248 -0.31033,2.624858 -0.31058,2.629265 -0.18952,3.294359 0.13956,0.766706 0.41702,1.85334 0.68249,2.672894 0.3061,0.944956 0.5656,2.296449 0.5656,2.945615 0,1.819491 -0.75123,3.258298 -2.00691,3.84374 -0.40207,0.187462 -1.15114,0.231172 -1.70537,0.09951 z"
     id="path218" /></svg>
